<svg width="1440" height="1024" viewBox="0 0 1440 1024" fill="none" xmlns="http://www.w3.org/2000/svg">
<path d="M498.842 555.566L290.906 614.976L474.805 638.532L354.878 733.187H577.73L543.728 820.49L723.848 733.187L884.209 820.49L866.749 735.944L1072.14 733.187L950.375 638.532L1146.41 576.359L980.604 535.852L1035.15 493.455L904.181 501.017L926.055 436.206L734.862 471.852L605.24 418.383L560.413 493.456L428.36 460.51L498.842 555.566Z" fill="url(#paint0_radial_2854_1201)"/>
<path d="M883.853 358.894L861.209 353.751L825.85 236.717L847.425 234.749L854.068 234.749L889.21 353.751L883.853 358.894Z" fill="#B1B1B1"/>
<path fill-rule="evenodd" clip-rule="evenodd" d="M823.229 234.948L847.337 232.749L855.565 232.749L891.475 354.351L884.463 361.082L859.633 355.443L823.229 234.948ZM828.476 238.486L862.789 352.058L880.977 356.189L845.972 236.89L828.476 238.486ZM850.099 236.749L852.576 236.749L886.95 353.15L884.847 355.169L850.099 236.749Z" fill="black"/>
<path d="M1018.98 370.845L996.334 365.702L960.975 248.668L982.55 246.7L989.193 246.7L1024.33 365.702L1018.98 370.845Z" fill="#B1B1B1"/>
<path fill-rule="evenodd" clip-rule="evenodd" d="M958.35 246.899L982.458 244.7L990.687 244.7L1026.6 366.302L1019.58 373.034L994.754 367.394L958.35 246.899ZM963.597 250.437L997.91 364.009L1016.1 368.14L981.093 248.841L963.597 250.437ZM985.22 248.7L987.697 248.7L1022.07 365.101L1019.97 367.12L985.22 248.7Z" fill="black"/>
<path fill-rule="evenodd" clip-rule="evenodd" d="M604.759 416.82L735.079 470.143L929.275 433.65L907.108 498.147L1039.9 491.58L983.427 535.395L1150.06 574.633L1149.14 578.526L980.892 538.908V629.375H976.892V535.402L1027.42 496.202L906.256 502.194V733.608H902.256V499.957L923.258 438.851L736.868 473.877V740.818H732.868V473.56L606.401 421.814L562.168 494.452V733.608H558.168V495.458L435.373 465.219L502.147 554.604V733.608H498.147V557.915L290.944 616.716L289.852 612.868L496.806 554.137L425.483 458.664L559.223 491.598L604.759 416.82Z" fill="#D9D9D9"/>
<path d="M787.219 262.74L789.831 219.439L802.565 214.868L1011.19 231.192V276.227L1003.35 285.92L787.219 262.74Z" fill="#D9D9D9"/>
<path fill-rule="evenodd" clip-rule="evenodd" d="M802.291 212.841L1013.19 229.343V276.935L1004.22 288.025L785.105 264.525L787.912 218.002L802.291 212.841ZM802.835 216.896L799.156 218.216L1002.73 235.336L1005.95 232.788L802.835 216.896ZM1009.19 235.326L1005.35 238.363V280.265L1009.19 275.52V235.326ZM1001.35 283.694V239.234L791.702 221.604L789.328 260.955L1001.35 283.694Z" fill="black"/>
<path d="M788.93 261.956L816.316 222.51L842.155 224.749L813.044 265.057L788.93 261.956Z" fill="#484848"/>
<path fill-rule="evenodd" clip-rule="evenodd" d="M815.335 220.417L845.842 223.061L813.97 267.192L785.41 263.52L815.335 220.417ZM817.299 224.602L792.451 260.392L812.12 262.921L838.47 226.437L817.299 224.602Z" fill="black"/>
<path d="M834.02 266.993L863.419 225.697L889.257 227.937L858.134 270.093L834.02 266.993Z" fill="#484848"/>
<path fill-rule="evenodd" clip-rule="evenodd" d="M862.454 223.606L892.989 226.253L859.046 272.227L830.457 268.551L862.454 223.606ZM864.387 227.789L837.586 265.435L857.225 267.96L885.53 229.621L864.387 227.789Z" fill="black"/>
<path d="M883.477 272.047L912.876 230.752L939.165 232.377L908.041 274.534L883.477 272.047Z" fill="#484848"/>
<path fill-rule="evenodd" clip-rule="evenodd" d="M911.891 228.687L942.957 230.607L908.974 276.638L879.852 273.69L911.891 228.687ZM913.861 232.816L887.101 270.404L907.109 272.429L935.373 234.146L913.861 232.816Z" fill="black"/>
<path d="M935.625 278.568L967.578 234.573L1001.33 237.374L968.525 281.734L935.625 278.568Z" fill="#484848"/>
<path fill-rule="evenodd" clip-rule="evenodd" d="M966.624 232.486L1005.08 235.677L969.463 283.832L931.953 280.223L966.624 232.486ZM968.538 236.659L939.302 276.912L967.593 279.634L997.592 239.07L968.538 236.659Z" fill="black"/>
<path d="M791.804 374.368L770.25 367.572L801.804 247.47L823.845 250.383H830.589L799.623 372.631L791.804 374.368Z" fill="#B1B1B1"/>
<path fill-rule="evenodd" clip-rule="evenodd" d="M800.318 245.256L823.977 248.383H833.16L801.26 374.317L791.714 376.436L767.832 368.906L800.318 245.256ZM821.344 252.069L803.29 249.683L772.669 366.237L790.395 371.826L821.344 252.069ZM794.557 371.708L797.987 370.946L828.02 252.383H825.394L794.557 371.708Z" fill="black"/>
<path d="M1071.27 427.734L1134.94 418.638V444.49L1113.88 470.341L1071.27 452.149V427.734Z" fill="#EA5252"/>
<path fill-rule="evenodd" clip-rule="evenodd" d="M1136.94 416.332V445.202L1114.48 472.772L1069.27 453.47V426L1136.94 416.332ZM1073.27 430.67V450.829L1111.88 467.313V445.853L1073.27 430.67ZM1115.88 445.202V464.721L1132.94 443.778V424.259L1115.88 445.202ZM1130.16 421.342L1079.05 428.643L1113.25 442.094L1130.16 421.342Z" fill="black"/>
<path d="M282.23 555.911L203.896 544.72V576.525L229.811 608.33L282.23 585.949V555.911Z" fill="#D24545"/>
<path fill-rule="evenodd" clip-rule="evenodd" d="M201.896 542.414V577.237L229.211 610.761L284.23 587.27V554.176L201.896 542.414ZM280.23 558.847V584.628L231.811 605.302V577.888L280.23 558.847ZM227.811 577.237V602.71L205.896 575.814V550.341L227.811 577.237ZM208.678 547.424L274.453 556.82L230.438 574.13L208.678 547.424Z" fill="black"/>
<path d="M617.37 356.635L567.503 345.554V370.3L587.591 388.295L617.371 384.338L617.37 356.635Z" fill="#EA5252"/>
<path fill-rule="evenodd" clip-rule="evenodd" d="M565.503 343.061V371.193L586.942 390.399L619.371 386.09L619.37 355.031L565.503 343.061ZM615.371 358.968L615.371 382.586L589.591 386.012V362.958L615.371 358.968ZM585.591 362.22V383.819L569.503 369.406V349.654L585.591 362.22ZM575.71 349.426L606.568 356.283L588.14 359.135L575.71 349.426Z" fill="black"/>
<path d="M498.684 409.976L522.892 408.963L542.211 418.993V440.692H512.517L500.305 429.793L498.684 409.976Z" fill="#D24545"/>
<path fill-rule="evenodd" clip-rule="evenodd" d="M523.344 406.942L544.214 417.778V442.692H511.758L498.379 430.753L496.523 408.065L523.344 406.942ZM501.079 414.69L510.52 422.857V436.226L502.236 428.833L501.079 414.69ZM514.52 438.692H540.214V421.201L514.52 423.754V438.692ZM513.178 419.867L535.321 417.668L522.446 410.983L503.81 411.763L513.178 419.867Z" fill="black"/>
<path d="M1007.67 425.486L1004.66 449.527L991.572 466.919L970.172 463.325L975.09 434.041L987.861 423.802L1007.67 425.486Z" fill="#D24545"/>
<path fill-rule="evenodd" clip-rule="evenodd" d="M1006.58 450.304L992.44 469.092L967.87 464.966L973.245 432.958L987.234 421.742L1009.92 423.669L1006.58 450.304ZM1002.63 427.064L993.01 435.022L979.826 432.808L988.489 425.863L1002.63 427.064ZM976.732 436.345L972.477 461.684L989.726 464.58L991.464 438.819L976.732 436.345ZM995.519 438.139L994.021 460.34L1002.75 448.75L1005.06 430.242L995.519 438.139Z" fill="black"/>
<path d="M296.039 408.963L365.54 434.529V445.067L296.039 467.341L235.109 445.067V428.529L296.039 408.963Z" fill="#D9D9D9"/>
<path fill-rule="evenodd" clip-rule="evenodd" d="M296.083 406.848L367.54 433.133V446.526L295.996 469.454L233.109 446.465V427.07L296.083 406.848ZM237.109 431.64V443.669L294.039 464.48V457.636L237.109 431.64ZM298.039 457.819V464.599L363.54 443.608V437.252L298.039 457.819ZM359.34 434.379L296.172 454.212L240.637 428.854L295.995 411.077L359.34 434.379Z" fill="black"/>
<path d="M334.509 429.903L312.505 346.285H286.496L265.852 429.903C293.595 439.519 308.618 438.941 334.509 429.903Z" fill="#B1B1B1"/>
<path fill-rule="evenodd" clip-rule="evenodd" d="M284.93 344.285H314.047L336.914 431.182L335.168 431.792C322.129 436.343 311.663 438.824 300.889 438.898C290.114 438.973 279.181 436.64 265.197 431.793L263.473 431.195L284.93 344.285ZM288.062 348.285L268.233 428.604C281.149 432.963 291.145 434.966 300.861 434.898C310.543 434.831 320.083 432.709 332.103 428.618L310.963 348.285H288.062Z" fill="black"/>
<path d="M314.477 346.182C314.477 350.318 307.771 353.671 299.5 353.671C291.229 353.671 284.523 350.318 284.523 346.182C284.523 342.046 291.229 338.693 299.5 338.693C307.771 338.693 314.477 342.046 314.477 346.182Z" fill="#D9D9D9"/>
<path fill-rule="evenodd" clip-rule="evenodd" d="M310.457 346.182C310.377 345.999 310.004 345.316 308.301 344.464C306.255 343.442 303.149 342.693 299.5 342.693C295.851 342.693 292.745 343.442 290.699 344.464C288.996 345.316 288.623 345.999 288.543 346.182C288.623 346.365 288.996 347.048 290.699 347.9C292.745 348.923 295.851 349.671 299.5 349.671C303.149 349.671 306.255 348.923 308.301 347.9C310.004 347.048 310.377 346.365 310.457 346.182ZM299.5 353.671C307.771 353.671 314.477 350.318 314.477 346.182C314.477 342.046 307.771 338.693 299.5 338.693C291.229 338.693 284.523 342.046 284.523 346.182C284.523 350.318 291.229 353.671 299.5 353.671Z" fill="black"/>
<path d="M367.784 489.8L398.6 495.695L400.476 510.236L385.738 516.648L358.406 507.269V495.695L367.784 489.8Z" fill="#B1B1B1"/>
<path fill-rule="evenodd" clip-rule="evenodd" d="M367.387 487.688L400.399 494.003L402.652 511.471L385.824 518.792L356.406 508.698V494.59L367.387 487.688ZM368.182 491.912L363.483 494.866L383.697 499.76L391.703 496.412L368.182 491.912ZM396.952 498.552L386.039 503.116L387.387 513.75L398.3 509.002L396.952 498.552ZM383.35 513.714L382.053 503.477L360.406 498.237V505.841L383.35 513.714Z" fill="black"/>
<path d="M369.652 503.319L340.637 519.109L344.612 526.449L373.102 509.193C373.056 505.786 372.164 504.622 369.652 503.319Z" fill="#D9D9D9"/>
<path fill-rule="evenodd" clip-rule="evenodd" d="M369.627 501.055L370.57 501.544C371.924 502.245 373.17 503.068 374.002 504.417C374.827 505.755 375.075 507.332 375.1 509.166L375.115 510.311L343.851 529.247L337.926 518.306L369.627 501.055ZM369.626 505.609L343.344 519.911L345.369 523.651L371.04 508.102C370.954 507.277 370.786 506.822 370.598 506.517C370.423 506.234 370.154 505.952 369.626 505.609Z" fill="black"/>
<path d="M341.011 514.681L301.199 535.246L310.5 552.421L349.083 528.425C348.975 520.452 346.89 517.728 341.011 514.681Z" fill="#D9D9D9"/>
<path fill-rule="evenodd" clip-rule="evenodd" d="M341.012 512.429L341.931 512.905C344.967 514.479 347.354 516.128 348.913 518.655C350.465 521.172 351.027 524.281 351.082 528.398L351.097 529.526L309.752 555.241L298.469 534.405L341.012 512.429ZM303.928 536.087L311.247 549.601L347.052 527.332C346.918 524.15 346.396 522.194 345.508 520.755C344.637 519.343 343.28 518.209 340.994 516.94L303.928 536.087Z" fill="black"/>
<path d="M313.188 541.112C315.652 547.195 313.66 553.742 308.739 555.735C303.818 557.728 297.831 554.412 295.367 548.329C292.904 542.245 294.896 535.698 299.817 533.705C304.738 531.712 310.724 535.028 313.188 541.112Z" fill="#B1B1B1"/>
<path fill-rule="evenodd" clip-rule="evenodd" d="M307.237 552.028C309.415 551.146 311.428 547.422 309.48 542.613C307.533 537.804 303.496 536.53 301.318 537.412C299.14 538.294 297.127 542.018 299.075 546.827C301.022 551.636 305.059 552.91 307.237 552.028ZM308.739 555.735C313.66 553.742 315.652 547.195 313.188 541.112C310.724 535.028 304.738 531.712 299.817 533.705C294.896 535.698 292.904 542.245 295.367 548.329C297.831 554.412 303.818 557.728 308.739 555.735Z" fill="black"/>
<path d="M942.271 395.819L918.617 388.571L952.271 259.808L976.446 262.915H983.639L951.35 393.761L942.271 395.819Z" fill="#B1B1B1"/>
<path fill-rule="evenodd" clip-rule="evenodd" d="M950.779 257.6L976.572 260.914H986.191L952.994 395.438L942.193 397.887L916.195 389.921L950.779 257.6ZM973.943 264.61L953.76 262.016L921.035 387.221L940.854 393.294L973.943 264.61ZM945.022 393.144L949.702 392.083L981.084 264.914H977.995L945.022 393.144Z" fill="black"/>
<defs>
<radialGradient id="paint0_radial_2854_1201" cx="0" cy="0" r="1" gradientUnits="userSpaceOnUse" gradientTransform="translate(718.659 853.175) rotate(-90) scale(385.616 820.42)">
<stop offset="0.0966663" stop-color="#7C7C7C"/>
<stop offset="0.936666" stop-color="#333333"/>
</radialGradient>
</defs>
</svg>
