<svg width="1440" height="194" viewBox="0 0 1440 194" fill="none" xmlns="http://www.w3.org/2000/svg">
<g clip-path="url(#clip0_2836_1022)">
<path d="M122.543 93.0466L-25.0391 149.026L-25.0391 238.899L1470.22 238.9L1470.22 149.026L1446.37 113.403L1434.23 120.294L1388.8 75.8415L1340.58 75.8415L1268.01 118.718L1218.64 64.519L1172 64.519L1005.42 116.092L922.973 68.3566L861.565 68.3566L707.391 121.344L564.019 54.8786L491.499 54.8786L413.821 95.8733L355.264 54.8786L298.115 54.8786L212.156 127.121L174.081 93.0466L122.543 93.0466Z" fill="#FF5959"/>
<path d="M185.848 149.021L124.469 94.1653L173.394 92.6831L211.348 127.079L185.848 149.021Z" fill="#EA5252"/>
<path d="M381.844 113.736L299.857 55.6189L353.971 54.7296L413.571 95.9452L381.844 113.736Z" fill="#EA5252"/>
<path d="M668.129 136.864L495.261 55.7668L562.273 54.2842L707.714 122.483L668.129 136.864Z" fill="#EA5252"/>
<path d="M965.682 129.302L864.126 69.1098L922.836 68.072L1005.27 116.256L965.682 129.302Z" fill="#EA5252"/>
<path d="M1237.73 136.271L1173.24 65.1069H1218.46L1267.68 118.48L1237.73 136.271Z" fill="#EA5252"/>
<path d="M1402 136.271L1341.81 76.078H1388.66L1432.84 120.11L1402 136.271Z" fill="#EA5252"/>
<path fill-rule="evenodd" clip-rule="evenodd" d="M562.381 53.7812L709.018 122.541L668.106 137.404L495.05 56.219L495.251 55.2664L562.381 53.7812ZM497.405 56.219L668.155 136.322L706.413 122.424L562.169 54.7862L497.405 56.219ZM354.125 54.2265L414.516 95.9891L381.814 114.326L298.324 55.1436L354.125 54.2265ZM301.393 56.0933L353.821 55.2317L412.629 95.9004L381.877 113.145L301.393 56.0933ZM1172.12 64.6064H1218.68L1268.47 118.594L1237.64 136.909L1172.12 64.6064ZM1174.37 65.6064L1237.83 135.631L1266.9 118.364L1218.24 65.6064H1174.37ZM922.969 67.5692L1006.48 116.383L965.624 129.848L862.356 68.6406L922.969 67.5692ZM865.899 69.5782L965.743 128.756L1004.06 116.127L922.706 68.574L865.899 69.5782ZM1340.61 75.5775H1388.87L1433.68 120.237L1401.91 136.884L1340.61 75.5775ZM1343.02 76.5775L1402.1 135.657L1432.01 119.983L1388.46 76.5775H1343.02ZM173.582 92.1767L212.104 127.088L185.843 149.685L123.203 93.703L173.582 92.1767ZM125.737 94.6267L185.855 148.355L210.594 127.069L173.209 93.1885L125.737 94.6267Z" fill="black"/>
<path fill-rule="evenodd" clip-rule="evenodd" d="M186.124 151.664L298.227 57.3959L381.945 115.745L491.563 57.1117L667.568 138.374L861.355 70.5486L965.536 131.119L1171.38 66.8077L1237.03 138.762L1340.26 78.3423L1401.36 138.657L1445.7 115.993L1468.56 150.139L1471.88 147.913L1447.04 110.813L1433.67 117.65L1389.74 73.8415L1340.03 73.8415L1268.09 115.949L1219.38 62.519L1171.69 62.519L1006.67 114.077L923.973 66.3566L861.224 66.3566L708.169 119.926L563.313 52.8786L490.996 52.8786L414.275 93.9152L355.251 52.8786L297.384 52.8786L212.145 124.556L174.185 91.0465L122.175 91.0465L-25.75 147.156L-24.3314 150.896L122.124 95.3437L186.124 151.664ZM127.841 95.0465L172.673 95.0465L209.05 127.159L186.183 146.388L127.841 95.0465ZM410.315 96.0336L382.22 111.061L304.48 56.8786L353.997 56.8786L410.315 96.0336ZM702.746 121.824L667.775 134.064L500.6 56.8786L562.432 56.8786L702.746 121.824ZM1001.48 115.699L966.024 126.776L868.983 70.3566L922.902 70.3566L1001.48 115.699ZM1264.56 118.015L1237.8 133.675L1176.53 66.519L1217.61 66.519L1264.56 118.015ZM1429.92 119.564L1402.11 133.78L1345.45 77.8415L1388.09 77.8415L1429.92 119.564Z" fill="black"/>
</g>
<defs>
<clipPath id="clip0_2836_1022">
<rect width="1440" height="194" fill="white"/>
</clipPath>
</defs>
</svg>
