<svg width="1440" height="1024" viewBox="0 0 1440 1024" fill="none" xmlns="http://www.w3.org/2000/svg">
<g clip-path="url(#clip0_2854_1246)">
<path d="M-72.1914 614.453H295.629L474.504 638.283L356.152 733.791H576.407L543.87 821.126L720.86 733.791L883.906 821.126L867.101 733.791H1071.04L950.194 638.283L1143.2 576.991L1651.84 593.605V1270.95H1465.25H-72.1914V614.453Z" fill="#333333"/>
<path d="M475.502 639.566L356.078 733.604H475.502V639.566Z" fill="url(#paint0_linear_2854_1246)"/>
<path d="M949.811 639.566L1069.23 733.604H949.811V639.566Z" fill="url(#paint1_linear_2854_1246)"/>
<path d="M868.217 745.75L883.715 819.654L868.217 812.366V745.75Z" fill="url(#paint2_linear_2854_1246)"/>
<path d="M574.658 741.121L546.312 817.468L576.247 804.429L574.658 741.121Z" fill="url(#paint3_linear_2854_1246)"/>
<path fill-rule="evenodd" clip-rule="evenodd" d="M1150.2 578.484L953.268 639.438L1079.06 736.2H870.185L886.167 823.593L722.633 736.442L541.089 823.849L574.091 736.2H349.112L471.188 640.045L290.145 616.77L290.655 612.803L478.167 636.91V732.2H578.981V801.166L722.725 731.958L865.787 808.199V732.2H946.988V637.194L1149.01 574.663L1150.2 578.484ZM950.988 732.2H1067.3L950.988 642.731V732.2ZM869.787 810.331L880.743 816.17L869.787 756.255V810.331ZM574.981 803.092V745.188L548.352 815.913L574.981 803.092ZM474.167 732.2V642.79L360.655 732.2H474.167Z" fill="#D9D9D9"/>
<path d="M259.591 825.744L331.561 799.751V835.465L302.569 861.438L259.59 855.726L259.591 825.744Z" fill="#D24545"/>
<path fill-rule="evenodd" clip-rule="evenodd" d="M333.561 796.902V836.359L303.218 863.541L257.59 857.478L257.591 824.34L333.561 796.902ZM261.591 828.077L261.59 853.974L300.569 859.154V834.11L261.591 828.077ZM304.569 833.156V856.961L329.561 834.572V805.015L304.569 833.156ZM324.843 804.304L301.798 830.253L267.635 824.965L324.843 804.304Z" fill="black"/>
<path d="M1187.61 724.823L1124.58 702.057V733.338L1149.97 756.086L1187.61 751.083L1187.61 724.823Z" fill="#EA5252"/>
<path fill-rule="evenodd" clip-rule="evenodd" d="M1122.58 699.208V734.232L1149.32 758.19L1189.61 752.835L1189.61 723.419L1122.58 699.208ZM1185.61 727.156L1185.61 749.332L1151.97 753.803V732.364L1185.61 727.156ZM1147.97 731.409V751.609L1126.58 732.445V707.321L1147.97 731.409ZM1131.29 706.61L1150.74 728.506L1179.57 724.044L1131.29 706.61Z" fill="black"/>
<path d="M290.906 750.853H265.701L243.063 765.803V794.851H276.382L290.906 770.502V750.853Z" fill="#EA5252"/>
<path fill-rule="evenodd" clip-rule="evenodd" d="M292.906 748.853H265.1L241.063 764.727V796.851H277.518L292.906 771.053V748.853ZM285.583 752.853L273.067 763.803H249.72L266.302 752.853H285.583ZM245.063 767.803H271.987L274.198 792.851H245.063V767.803ZM277.831 788.518L275.9 766.639L288.906 755.26V769.951L277.831 788.518Z" fill="black"/>
<path d="M839.242 863.607L801.614 862.032L771.586 877.622V911.35H817.74L836.722 894.409L839.242 863.607Z" fill="#D24545"/>
<path fill-rule="evenodd" clip-rule="evenodd" d="M801.167 860.012L769.587 876.407V913.35H818.504L838.652 895.369L841.406 861.696L801.167 860.012ZM836.851 868.321L819.741 883.122V906.884L834.795 893.45L836.851 868.321ZM815.741 909.35H773.587V879.831L815.741 884.018V909.35ZM817.083 880.132L778.48 876.297L802.064 864.053L834.12 865.394L817.083 880.132Z" fill="black"/>
<path d="M808.952 804.838L811.962 828.88L825.053 846.271L846.453 842.678L841.535 813.394L828.764 803.155L808.952 804.838Z" fill="#EA5252"/>
<path fill-rule="evenodd" clip-rule="evenodd" d="M810.043 829.657L824.185 848.444L848.755 844.318L843.38 812.31L829.391 801.094L806.709 803.021L810.043 829.657ZM813.997 806.416L823.615 814.375L836.799 812.161L828.136 805.215L813.997 806.416ZM839.893 815.697L844.148 841.036L826.899 843.933L825.161 818.171L839.893 815.697ZM821.106 817.491L822.604 839.693L813.88 828.103L811.563 809.594L821.106 817.491Z" fill="black"/>
<path d="M611.367 836.54L680.868 856.106V866.645L611.367 894.918L550.438 872.645V863.106L611.367 836.54Z" fill="#D9D9D9"/>
<path fill-rule="evenodd" clip-rule="evenodd" d="M611.222 834.422L682.868 854.592V867.991L611.406 897.062L548.438 874.043V861.796L611.222 834.422ZM611.512 838.659L556.293 862.735L611.306 878.827L674.289 856.332L611.512 838.659ZM678.868 858.944L613.367 882.338V891.946L678.868 865.299V858.944ZM609.367 892.058V882.427L552.438 865.775V871.247L609.367 892.058Z" fill="black"/>
<path d="M1142.12 604.898L1211.63 627.464V639.003L1142.12 667.276L1081.2 641.003V629.464L1142.12 604.898Z" fill="#D9D9D9"/>
<path fill-rule="evenodd" clip-rule="evenodd" d="M1142.05 602.772L1213.63 626.012V640.349L1142.1 669.445L1079.2 642.319V628.115L1142.05 602.772ZM1142.2 607.026L1086.82 629.354L1142.14 649.168L1205.31 627.516L1142.2 607.026ZM1209.63 630.265L1144.12 652.716V664.304L1209.63 637.658V630.265ZM1140.12 664.237V652.695L1083.2 632.306V639.688L1140.12 664.237Z" fill="black"/>
<path d="M649.837 857.48L627.833 773.862H601.824L581.18 857.48C608.924 867.096 623.946 866.518 649.837 857.48Z" fill="#B1B1B1"/>
<path fill-rule="evenodd" clip-rule="evenodd" d="M600.258 771.862H629.375L652.242 858.759L650.496 859.369C637.457 863.92 626.991 866.401 616.217 866.475C605.442 866.55 594.509 864.217 580.525 859.37L578.801 858.773L600.258 771.862ZM603.391 775.862L583.561 856.181C596.477 860.54 606.474 862.543 616.19 862.476C625.871 862.409 635.412 860.286 647.431 856.195L626.291 775.862H603.391Z" fill="black"/>
<path d="M1180.59 625.839L1158.59 542.221H1132.58L1111.94 625.839C1139.68 635.455 1154.7 634.876 1180.59 625.839Z" fill="#B1B1B1"/>
<path fill-rule="evenodd" clip-rule="evenodd" d="M1131.02 540.221H1160.13L1183 627.118L1181.25 627.727C1168.21 632.279 1157.75 634.759 1146.98 634.834C1136.2 634.908 1125.27 632.575 1111.28 627.729L1109.56 627.131L1131.02 540.221ZM1134.15 544.221L1114.32 624.54C1127.23 628.899 1137.23 630.901 1146.95 630.834C1156.63 630.767 1166.17 628.645 1178.19 624.553L1157.05 544.221H1134.15Z" fill="black"/>
<path d="M629.805 773.759C629.805 777.895 623.099 781.248 614.828 781.248C606.557 781.248 599.852 777.895 599.852 773.759C599.852 769.623 606.557 766.271 614.828 766.271C623.099 766.271 629.805 769.623 629.805 773.759Z" fill="#D9D9D9"/>
<path fill-rule="evenodd" clip-rule="evenodd" d="M625.785 773.759C625.705 773.576 625.332 772.893 623.629 772.042C621.583 771.019 618.477 770.271 614.828 770.271C611.179 770.271 608.073 771.019 606.027 772.042C604.324 772.893 603.951 773.576 603.872 773.759C603.951 773.943 604.324 774.625 606.027 775.477C608.073 776.5 611.179 777.248 614.828 777.248C618.477 777.248 621.583 776.5 623.629 775.477C625.332 774.625 625.705 773.943 625.785 773.759ZM614.828 781.248C623.099 781.248 629.805 777.895 629.805 773.759C629.805 769.623 623.099 766.271 614.828 766.271C606.557 766.271 599.852 769.623 599.852 773.759C599.852 777.895 606.557 781.248 614.828 781.248Z" fill="black"/>
<path d="M1160.56 542.118C1160.56 546.254 1153.86 549.606 1145.59 549.606C1137.31 549.606 1130.61 546.254 1130.61 542.118C1130.61 537.982 1137.31 534.629 1145.59 534.629C1153.86 534.629 1160.56 537.982 1160.56 542.118Z" fill="#D9D9D9"/>
<path fill-rule="evenodd" clip-rule="evenodd" d="M1156.54 542.118C1156.46 541.934 1156.09 541.252 1154.39 540.4C1152.34 539.377 1149.24 538.629 1145.59 538.629C1141.94 538.629 1138.83 539.377 1136.78 540.4C1135.08 541.252 1134.71 541.934 1134.63 542.118C1134.71 542.301 1135.08 542.984 1136.78 543.835C1138.83 544.858 1141.94 545.606 1145.59 545.606C1149.24 545.606 1152.34 544.858 1154.39 543.835C1156.09 542.984 1156.46 542.301 1156.54 542.118ZM1145.59 549.606C1153.86 549.606 1160.56 546.254 1160.56 542.118C1160.56 537.982 1153.86 534.629 1145.59 534.629C1137.31 534.629 1130.61 537.982 1130.61 542.118C1130.61 546.254 1137.31 549.606 1145.59 549.606Z" fill="black"/>
<path d="M1014.52 715.349V776.277L941.678 792.769L932.058 788.417L922.438 784.065V724.053L993.904 708.936L1004.21 712.142L1014.52 715.349Z" fill="#B1B1B1"/>
<path fill-rule="evenodd" clip-rule="evenodd" d="M994 706.871L1016.52 713.877V777.875L941.465 794.868L920.438 785.355V722.432L994 706.871ZM924.438 726.891L930.058 728.898V785.317L924.438 782.775V726.891ZM934.058 787.127L939.678 789.669V732.334L934.058 730.327V787.127ZM943.678 732.542V790.265L1012.52 774.679V717.822L943.678 732.542ZM1006.63 714.99L941.815 728.85L929.767 724.547L993.808 711L1006.63 714.99Z" fill="black"/>
<path fill-rule="evenodd" clip-rule="evenodd" d="M347.435 682.834C344.66 681.462 341.475 680.97 338.319 681.524L336.306 681.878C332.618 682.525 329.219 684.293 326.571 686.941L320.488 693.023L317.66 690.195L323.743 684.112C326.972 680.884 331.117 678.728 335.614 677.938L337.627 677.585C343.112 676.621 348.668 678.147 352.86 681.617C355.614 681.063 358.431 680.878 361.236 681.066C369.442 681.616 377.113 685.333 382.631 691.432L382.817 691.638L383.148 691.934C383.179 691.934 383.209 691.933 383.24 691.933H388.086C389.533 691.933 390.977 692.062 392.402 692.316C397.508 693.229 402.193 695.737 405.784 699.481L407.175 700.931C408.504 702.316 409.654 703.86 410.601 705.53L411.932 707.877C414.186 708.828 416.253 710.179 418.029 711.868L418.763 712.565C422.923 716.519 425.611 721.774 426.384 727.461L426.918 732.201H422.889L422.421 728C421.77 723.214 419.508 718.792 416.007 715.464L415.274 714.767C415.12 714.621 414.963 714.478 414.804 714.338C415.124 716.321 414.899 718.378 414.114 720.281L413.92 720.752C412.504 724.186 409.323 726.571 405.629 726.966C403.233 727.223 400.824 726.618 398.834 725.26L398.766 725.213C396.18 723.448 394.531 720.608 394.28 717.487L394.248 717.093C394.083 715.038 394.546 712.981 395.576 711.195C397.117 708.525 399.786 706.698 402.832 706.228L403.3 706.156C404.277 706.005 405.265 705.986 406.24 706.095C405.656 705.246 405.003 704.445 404.288 703.7L402.898 702.25C399.893 699.117 395.971 697.018 391.698 696.254C390.506 696.041 389.297 695.933 388.086 695.933H387.452C389.62 698.367 391.076 701.369 391.635 704.607L391.794 705.529C392.003 706.734 392.019 707.965 391.843 709.176C391.246 713.292 388.497 716.776 384.632 718.312L384.111 718.519C381.474 719.568 378.545 719.618 375.873 718.661C372.24 717.359 369.487 714.343 368.521 710.607L368.35 709.944C367.807 707.844 367.8 705.641 368.33 703.538L368.425 703.16C369.438 699.141 372.125 695.748 375.807 693.843L376.17 693.655C376.867 693.294 377.589 692.988 378.329 692.738C373.642 688.228 367.499 685.495 360.968 685.057C359.371 684.95 357.77 684.981 356.183 685.15C357.826 687.258 358.906 689.75 359.318 692.392L359.61 694.257C360.206 698.07 358.927 701.943 356.192 704.659C353.95 706.886 350.91 708.144 347.745 708.144C343.951 708.144 340.381 706.347 338.122 703.299L337.979 703.106C336.649 701.311 335.842 699.182 335.649 696.957C335.312 693.083 336.861 689.284 339.81 686.75L340.606 686.066C342.357 684.562 344.448 683.509 346.699 683L347.435 682.834ZM351.67 685.978L347.581 686.902C345.968 687.267 344.468 688.021 343.213 689.099L342.417 689.784C340.445 691.479 339.409 694.02 339.634 696.611C339.763 698.099 340.302 699.523 341.192 700.724L341.335 700.917C342.84 702.947 345.218 704.144 347.745 704.144C349.85 704.144 351.878 703.306 353.374 701.82C355.202 700.005 356.055 697.416 355.658 694.875L355.366 693.01C355.053 691.003 354.224 689.113 352.96 687.523L352.457 686.89C352.206 686.573 351.943 686.269 351.67 685.978ZM381.732 696.034C380.436 696.207 379.176 696.603 378.008 697.207L377.646 697.395C374.981 698.774 373.036 701.229 372.304 704.138L372.208 704.515C371.842 705.969 371.847 707.491 372.222 708.942L372.394 709.605C373.028 712.059 374.836 714.04 377.223 714.895C378.977 715.524 380.901 715.491 382.633 714.802L383.154 714.595C385.689 713.587 387.493 711.302 387.885 708.602C388 707.808 387.989 707 387.853 706.209L387.694 705.288C387.175 702.285 385.657 699.545 383.386 697.513L381.732 696.034ZM409.157 711.092L407.497 710.475C406.352 710.049 405.117 709.923 403.91 710.109L403.442 710.182C401.594 710.467 399.975 711.575 399.041 713.194C398.416 714.277 398.135 715.525 398.235 716.772L398.267 717.166C398.421 719.082 399.434 720.826 401.021 721.91L401.089 721.956C402.294 722.778 403.752 723.145 405.203 722.989C407.439 722.75 409.365 721.306 410.222 719.227L410.416 718.756C411.237 716.767 411.096 714.512 410.035 712.641L409.157 711.092Z" fill="#484848"/>
<path fill-rule="evenodd" clip-rule="evenodd" d="M351.67 685.978L347.582 686.902C345.968 687.267 344.469 688.021 343.214 689.099L342.418 689.784C340.445 691.479 339.409 694.02 339.634 696.611C339.764 698.1 340.303 699.523 341.193 700.724L341.336 700.917C341.524 701.17 341.726 701.411 341.94 701.638C343.438 703.228 345.535 704.144 347.746 704.144C349.85 704.144 351.878 703.306 353.374 701.82C355.203 700.005 356.055 697.416 355.658 694.875L355.367 693.01C355.059 691.04 354.254 689.181 353.029 687.609L353.027 687.608C353.005 687.579 352.983 687.551 352.961 687.523L352.458 686.89C352.206 686.574 351.944 686.269 351.67 685.978ZM350.136 690.426L348.464 690.804C347.488 691.024 346.58 691.481 345.821 692.133L345.025 692.817C344.029 693.673 343.506 694.956 343.619 696.265C343.685 697.017 343.957 697.735 344.406 698.342L344.549 698.535C345.3 699.547 346.486 700.144 347.746 700.144C348.79 700.144 349.806 699.726 350.556 698.982C351.478 698.066 351.905 696.761 351.706 695.492L351.415 693.627C351.235 692.475 350.797 691.381 350.136 690.426ZM358.393 689.006C357.952 687.896 357.384 686.838 356.7 685.852C356.535 685.614 356.362 685.38 356.183 685.15C357.755 684.983 359.34 684.95 360.92 685.054C360.937 685.055 360.953 685.056 360.969 685.057C365.968 685.392 370.74 687.073 374.806 689.865C375.843 690.578 376.834 691.362 377.771 692.216C377.96 692.387 378.146 692.562 378.33 692.739C377.59 692.988 376.868 693.294 376.17 693.655L375.807 693.843C375.343 694.083 374.895 694.347 374.464 694.633C371.475 696.614 369.311 699.648 368.425 703.161L368.33 703.538C367.867 705.378 367.814 707.295 368.172 709.152C368.223 709.417 368.282 709.681 368.35 709.944L368.522 710.607C369.367 713.876 371.581 716.594 374.554 718.094C374.979 718.309 375.42 718.498 375.874 718.661C378.545 719.618 381.475 719.568 384.112 718.519L384.633 718.312C387.239 717.276 389.338 715.354 390.612 712.95C391.106 712.017 391.476 711.012 391.703 709.957C391.705 709.952 391.706 709.946 391.707 709.94C391.761 709.688 391.807 709.434 391.844 709.176C391.998 708.117 392.004 707.042 391.864 705.982C391.844 705.831 391.821 705.68 391.795 705.529L391.636 704.607L395.578 703.927L395.737 704.848C395.747 704.909 395.757 704.97 395.767 705.031C396.557 704.426 397.41 703.904 398.311 703.477C397.288 702.671 396.176 701.99 394.997 701.448C395.238 702.258 395.432 703.086 395.578 703.927L391.636 704.607C391.363 703.025 390.875 701.499 390.196 700.069C389.624 698.867 388.917 697.732 388.087 696.688C388.082 696.682 388.077 696.676 388.073 696.67C387.873 696.419 387.666 696.174 387.452 695.934H388.087C389.146 695.934 390.204 696.016 391.251 696.179C391.4 696.202 391.55 696.227 391.699 696.254C392.07 696.32 392.439 696.397 392.805 696.483C396.121 697.266 399.188 698.863 401.73 701.124C402.109 701.462 402.477 701.815 402.833 702.182C402.855 702.204 402.876 702.227 402.898 702.25L404.289 703.7C404.976 704.415 405.605 705.183 406.171 705.995C406.194 706.028 406.217 706.061 406.24 706.095C405.266 705.986 404.278 706.005 403.301 706.156L402.833 706.228C402.368 706.3 401.912 706.403 401.467 706.537C398.998 707.276 396.883 708.933 395.577 711.195C395.544 711.252 395.512 711.308 395.481 711.365C394.972 712.288 394.612 713.28 394.409 714.305C394.253 715.092 394.191 715.899 394.225 716.707C394.23 716.836 394.238 716.964 394.249 717.093L394.28 717.488C394.5 720.218 395.79 722.734 397.842 724.503C398.135 724.755 398.444 724.993 398.767 725.213L396.512 728.517C393.365 726.369 391.219 723.073 390.506 719.374C389.217 720.479 387.737 721.382 386.11 722.029L385.589 722.236C382.047 723.645 378.113 723.712 374.524 722.426C369.645 720.678 365.947 716.627 364.649 711.608L364.478 710.945C363.767 708.197 363.758 705.314 364.451 702.561L364.547 702.183C365.55 698.201 367.841 694.701 371.014 692.197C368.466 690.719 365.652 689.72 362.71 689.269C362.951 690.089 363.138 690.926 363.271 691.775L363.562 693.64C364.357 698.725 362.653 703.881 359.011 707.497C356.022 710.465 351.97 712.144 347.746 712.144C342.685 712.144 337.923 709.747 334.909 705.681L334.766 705.488L337.979 703.106L338.123 703.299C340.382 706.347 343.952 708.144 347.746 708.144C350.861 708.144 353.855 706.925 356.087 704.762C356.123 704.728 356.158 704.694 356.193 704.659C358.757 702.113 360.041 698.55 359.7 694.973C359.678 694.734 359.648 694.496 359.61 694.257L359.319 692.392C359.137 691.228 358.825 690.092 358.393 689.006ZM398.767 725.213L398.835 725.26C400.825 726.618 403.234 727.223 405.629 726.967C409.323 726.571 412.505 724.186 413.921 720.752L414.115 720.281C414.214 720.04 414.305 719.796 414.387 719.55C414.706 718.586 414.888 717.592 414.934 716.594C414.956 716.114 414.946 715.633 414.905 715.155C414.895 715.033 414.882 714.911 414.868 714.79C414.85 714.639 414.829 714.488 414.805 714.338C414.964 714.478 415.12 714.621 415.274 714.767L416.007 715.464C417.022 716.429 417.933 717.486 418.731 718.617C420.685 721.386 421.96 724.601 422.422 728L422.889 732.159H426.898L426.385 727.461C426.361 727.288 426.336 727.115 426.309 726.942C425.446 721.454 422.797 716.399 418.763 712.565L418.03 711.868C417.838 711.686 417.643 711.508 417.445 711.334C417.442 711.331 417.439 711.329 417.436 711.326C415.952 710.023 414.286 708.944 412.492 708.123C412.307 708.038 412.12 707.956 411.932 707.877L410.601 705.53C410.519 705.385 410.436 705.241 410.351 705.099C410.093 704.666 409.821 704.242 409.535 703.827C408.829 702.8 408.04 701.832 407.176 700.931L405.785 699.481L408.672 696.712L410.062 698.162C411.621 699.786 412.971 701.599 414.081 703.557L414.774 704.779C416.974 705.862 419.002 707.273 420.786 708.969L421.519 709.666C426.339 714.247 429.453 720.334 430.349 726.923L430.938 732.159H419.126L418.458 728.539C418.223 726.81 417.729 725.139 417.002 723.58C414.808 727.663 410.726 730.443 406.056 730.944C402.715 731.302 399.355 730.458 396.58 728.564L396.512 728.517L398.767 725.213ZM405.803 710.071C405.801 710.07 405.798 710.07 405.796 710.07C405.171 710 404.537 710.013 403.911 710.109L403.443 710.182C401.595 710.467 399.976 711.575 399.042 713.194C398.963 713.33 398.891 713.468 398.823 713.608C398.352 714.589 398.148 715.681 398.236 716.772L398.268 717.167C398.277 717.286 398.29 717.405 398.306 717.524C398.551 719.298 399.533 720.894 401.022 721.91L401.09 721.956C402.295 722.778 403.753 723.145 405.203 722.989C407.44 722.75 409.366 721.306 410.223 719.227L410.417 718.756C410.421 718.747 410.425 718.737 410.429 718.728C410.918 717.526 411.058 716.227 410.856 714.976C410.725 714.164 410.451 713.373 410.035 712.641L409.157 711.093L407.497 710.475C406.949 710.271 406.38 710.136 405.803 710.071ZM406.397 714.333L406.556 714.614C407.01 715.415 407.07 716.38 406.719 717.231L406.525 717.702C406.226 718.426 405.556 718.929 404.777 719.012C404.272 719.066 403.764 718.939 403.345 718.652L403.277 718.606C402.688 718.204 402.312 717.557 402.255 716.846L402.223 716.451C402.188 716.013 402.286 715.574 402.506 715.194C402.834 714.624 403.403 714.235 404.053 714.135L404.521 714.063C405.053 713.98 405.598 714.036 406.102 714.224L406.397 714.333ZM383.262 691.934H388.087C389.534 691.934 390.978 692.062 392.402 692.316C397.509 693.229 402.194 695.737 405.785 699.481L408.672 696.712C404.495 692.358 399.045 689.44 393.106 688.379C391.45 688.083 389.77 687.934 388.087 687.934H384.837C378.689 681.55 370.374 677.67 361.505 677.075C358.96 676.904 356.406 677.007 353.888 677.379C349.022 673.997 342.944 672.59 336.935 673.645L334.923 673.998C329.616 674.931 324.725 677.474 320.915 681.284L312.004 690.195L320.489 698.68L329.4 689.77C330.904 688.266 332.718 687.126 334.703 686.422C332.431 689.529 331.324 693.387 331.664 697.303C331.922 700.265 332.995 703.099 334.766 705.488L337.979 703.106C336.649 701.311 335.843 699.182 335.649 696.957C335.313 693.083 336.862 689.284 339.811 686.75L340.607 686.066C340.912 685.804 341.227 685.556 341.551 685.322C343.09 684.212 344.841 683.421 346.7 683L347.435 682.834C347.152 682.694 346.865 682.563 346.574 682.442C345.719 682.085 344.832 681.809 343.923 681.618C342.764 681.374 341.57 681.268 340.366 681.31C339.686 681.334 339.002 681.404 338.319 681.524L336.307 681.878C332.619 682.526 329.22 684.293 326.572 686.941L320.489 693.023L317.661 690.195L323.744 684.113C326.972 680.884 331.117 678.728 335.615 677.938L337.627 677.585C341.647 676.879 345.704 677.509 349.235 679.262C350.467 679.873 351.634 680.621 352.713 681.496C352.76 681.534 352.806 681.572 352.852 681.61C352.855 681.612 352.858 681.615 352.861 681.617C352.918 681.605 352.976 681.594 353.034 681.583C353.251 681.54 353.468 681.5 353.686 681.462C354.374 681.343 355.066 681.246 355.761 681.172C357.577 680.979 359.409 680.943 361.237 681.066C368.71 681.567 375.74 684.695 381.103 689.856C381.109 689.861 381.114 689.867 381.12 689.872C381.639 690.373 382.144 690.893 382.631 691.432M382.818 691.638L383.148 691.934ZM379.607 696.529C379.059 696.714 378.525 696.94 378.009 697.207L377.646 697.395C374.982 698.774 373.037 701.229 372.304 704.138L372.209 704.515C371.843 705.969 371.847 707.491 372.223 708.942L372.394 709.605C373.029 712.059 374.837 714.04 377.223 714.895C377.443 714.974 377.664 715.042 377.888 715.1C379.456 715.506 381.118 715.405 382.634 714.802L383.155 714.595C385.69 713.587 387.494 711.302 387.885 708.602C388.001 707.808 387.99 707 387.853 706.209L387.694 705.288C387.667 705.132 387.638 704.976 387.605 704.821C387.12 702.501 386.035 700.355 384.466 698.595C384.128 698.216 383.768 697.855 383.386 697.513L381.733 696.034C381.01 696.131 380.298 696.296 379.607 696.529ZM380.627 700.412L380.72 700.495C382.319 701.925 383.387 703.854 383.752 705.968L383.912 706.89C383.977 707.266 383.982 707.65 383.927 708.028C383.741 709.312 382.883 710.399 381.677 710.878L381.156 711.085C380.329 711.414 379.41 711.43 378.573 711.13C377.433 710.721 376.57 709.776 376.267 708.604L376.095 707.941C375.888 707.138 375.885 706.297 376.088 705.493L376.183 705.115C376.636 703.317 377.838 701.8 379.485 700.947L379.848 700.76C380.101 700.628 380.361 700.512 380.627 700.412ZM383.148 691.934H383.24H383.262M383.143 690.969L382.779 691.298Z" fill="black"/>
<path d="M251.38 652.251L318.786 652.252L322.199 707.428L301.883 726.227H230.609V670.833L251.38 652.251Z" fill="#B1B1B1"/>
<path fill-rule="evenodd" clip-rule="evenodd" d="M250.616 650.251L320.666 650.252L324.254 708.251L302.666 728.227H228.609V669.939L250.616 650.251ZM252.144 654.251L235.845 668.833H300.998L314.263 654.252L252.144 654.251ZM317.082 657.097L303.883 671.606V721.651L320.144 706.604L317.082 657.097ZM299.883 724.227V672.833H232.609V724.227H299.883Z" fill="black"/>
<path d="M279.737 661.625L280.943 632.91L271.098 632.641L271.701 661.685C275.209 663.648 276.924 663.424 279.737 661.625Z" fill="#D9D9D9"/>
<path fill-rule="evenodd" clip-rule="evenodd" d="M281.693 662.749L280.816 663.31C279.317 664.269 277.809 665.014 276.039 665.065C274.282 665.116 272.594 664.476 270.726 663.43L269.726 662.871L269.057 630.585L283.027 630.966L281.693 662.749ZM277.785 660.461L278.861 634.854L273.143 634.698L273.677 660.457C274.72 660.948 275.394 661.082 275.923 661.067C276.427 661.052 276.98 660.897 277.785 660.461Z" fill="black"/>
<path d="M251.741 639.454L298.473 640.283L298.522 624.267L251.326 626.391C248.273 632.173 248.705 634.952 251.741 639.454Z" fill="#D9D9D9"/>
<path fill-rule="evenodd" clip-rule="evenodd" d="M250.664 641.435L250.082 640.572C248.503 638.23 247.388 636.04 247.253 633.509C247.118 630.991 247.97 628.463 249.558 625.457L250.092 624.445L300.528 622.174L300.467 642.318L250.664 641.435ZM252.838 637.473L296.479 638.247L296.516 626.359L252.583 628.337C251.521 630.542 251.18 632.037 251.247 633.296C251.313 634.527 251.78 635.773 252.838 637.473Z" fill="black"/>
<path d="M983.908 715.408L952.067 722.612L950.414 711.843L983.139 705.972C985.835 708.35 986.1 712.156 983.908 715.408Z" fill="#D9D9D9"/>
<path fill-rule="evenodd" clip-rule="evenodd" d="M985.124 717.184L985.567 716.527C988.221 712.591 988.04 707.628 984.463 704.473L983.738 703.833L948.142 710.219L950.417 725.037L985.124 717.184ZM953.719 720.188L952.688 713.468L982.436 708.131C983.567 709.59 983.737 711.613 982.642 713.645L953.719 720.188Z" fill="black"/>
<path d="M306.989 632.683C306.733 638.314 303.111 642.723 298.899 642.532C294.687 642.34 291.48 637.62 291.736 631.989C291.992 626.358 295.614 621.948 299.826 622.14C304.038 622.331 307.245 627.051 306.989 632.683Z" fill="#B1B1B1"/>
<path fill-rule="evenodd" clip-rule="evenodd" d="M301.337 637.252C302.201 636.199 302.901 634.538 302.993 632.501C303.086 630.464 302.54 628.746 301.775 627.619C301.01 626.493 300.206 626.161 299.644 626.136C299.083 626.11 298.252 626.368 297.388 627.42C296.524 628.472 295.824 630.134 295.732 632.171C295.639 634.208 296.185 635.926 296.95 637.052C297.715 638.178 298.519 638.51 299.081 638.536C299.642 638.562 300.473 638.304 301.337 637.252ZM298.899 642.532C303.111 642.723 306.733 638.314 306.989 632.683C307.245 627.051 304.038 622.331 299.826 622.14C295.614 621.948 291.992 626.358 291.736 631.989C291.48 637.62 294.687 642.34 298.899 642.532Z" fill="black"/>
<path d="M944.302 717.922C944.487 721.989 947.103 725.174 950.145 725.036C953.188 724.898 955.504 721.488 955.319 717.421C955.134 713.354 952.518 710.169 949.476 710.307C946.433 710.445 944.117 713.855 944.302 717.922Z" fill="#B1B1B1"/>
<path fill-rule="evenodd" clip-rule="evenodd" d="M949.243 720.517C948.785 719.96 948.355 718.996 948.298 717.74C948.241 716.485 948.582 715.486 948.987 714.889C949.185 714.598 949.368 714.444 949.483 714.372C949.586 714.307 949.639 714.304 949.657 714.303C949.676 714.302 949.728 714.301 949.838 714.356C949.958 714.417 950.155 714.554 950.378 714.826C950.836 715.383 951.266 716.348 951.323 717.603C951.38 718.858 951.039 719.857 950.634 720.454C950.436 720.745 950.253 720.899 950.138 720.971C950.034 721.036 949.982 721.039 949.964 721.04C949.945 721.041 949.893 721.043 949.783 720.987C949.663 720.926 949.466 720.789 949.243 720.517ZM950.145 725.036C947.103 725.174 944.487 721.989 944.302 717.922C944.117 713.855 946.433 710.445 949.476 710.307C952.518 710.169 955.134 713.354 955.319 717.421C955.504 721.488 953.188 724.898 950.145 725.036Z" fill="black"/>
</g>
<defs>
<linearGradient id="paint0_linear_2854_1246" x1="438.998" y1="650.55" x2="415.79" y2="733.604" gradientUnits="userSpaceOnUse">
<stop stop-color="#333333"/>
<stop offset="1" stop-color="#717171"/>
</linearGradient>
<linearGradient id="paint1_linear_2854_1246" x1="986.314" y1="650.55" x2="1009.52" y2="733.604" gradientUnits="userSpaceOnUse">
<stop stop-color="#333333"/>
<stop offset="1" stop-color="#717171"/>
</linearGradient>
<linearGradient id="paint2_linear_2854_1246" x1="904.725" y1="756.734" x2="927.933" y2="839.787" gradientUnits="userSpaceOnUse">
<stop stop-color="#333333"/>
<stop offset="1" stop-color="#717171"/>
</linearGradient>
<linearGradient id="paint3_linear_2854_1246" x1="539.74" y1="754.277" x2="516.532" y2="837.33" gradientUnits="userSpaceOnUse">
<stop stop-color="#333333"/>
<stop offset="1" stop-color="#717171"/>
</linearGradient>
<clipPath id="clip0_2854_1246">
<rect width="1440" height="1024" fill="white"/>
</clipPath>
</defs>
</svg>
